<?xml version="1.0" encoding="utf-8" standalone="no"?>
<!DOCTYPE svg PUBLIC "-//W3C//DTD SVG 1.1//EN"
  "http://www.w3.org/Graphics/SVG/1.1/DTD/svg11.dtd">
<svg xmlns:xlink="http://www.w3.org/1999/xlink" width="540pt" height="396pt" viewBox="0 0 540 396" xmlns="http://www.w3.org/2000/svg" version="1.1">
 <metadata>
  <rdf:RDF xmlns:dc="http://purl.org/dc/elements/1.1/" xmlns:cc="http://creativecommons.org/ns#" xmlns:rdf="http://www.w3.org/1999/02/22-rdf-syntax-ns#">
   <cc:Work>
    <dc:type rdf:resource="http://purl.org/dc/dcmitype/StillImage"/>
    <dc:date>2026-01-15T19:09:14.317752</dc:date>
    <dc:format>image/svg+xml</dc:format>
    <dc:creator>
     <cc:Agent>
      <dc:title>Matplotlib v3.10.0, https://matplotlib.org/</dc:title>
     </cc:Agent>
    </dc:creator>
   </cc:Work>
  </rdf:RDF>
 </metadata>
 <defs>
  <style type="text/css">*{stroke-linejoin: round; stroke-linecap: butt}</style>
 </defs>
 <g id="figure_1">
  <g id="patch_1">
   <path d="M 0 396 
L 540 396 
L 540 0 
L 0 0 
z
" style="fill: #ffffff"/>
  </g>
  <g id="axes_1">
   <g id="patch_2">
    <path d="M 155.621 330.172 
L 522.72 330.172 
L 522.72 17.28 
L 155.621 17.28 
z
" style="fill: #ffffff"/>
   </g>
   <g id="matplotlib.axis_1">
    <g id="xtick_1">
     <g id="line2d_1">
      <defs>
       <path id="m04ceea3b6e" d="M 0 0 
L 0 3.5 
" style="stroke: #000000; stroke-width: 0.8"/>
      </defs>
      <g>
       <use xlink:href="#m04ceea3b6e" x="155.621" y="330.172" style="stroke: #000000; stroke-width: 0.8"/>
      </g>
     </g>
     <g id="text_1">
      <!-- $\mathdefault{10^{-1}}$ -->
      <g transform="translate(136.821 349.3295) scale(0.16 -0.16)">
       <defs>
        <path id="DejaVuSans-31" d="M 794 531 
L 1825 531 
L 1825 4091 
L 703 3866 
L 703 4441 
L 1819 4666 
L 2450 4666 
L 2450 531 
L 3481 531 
L 3481 0 
L 794 0 
L 794 531 
z
" transform="scale(0.015625)"/>
        <path id="DejaVuSans-30" d="M 2034 4250 
Q 1547 4250 1301 3770 
Q 1056 3291 1056 2328 
Q 1056 1369 1301 889 
Q 1547 409 2034 409 
Q 2525 409 2770 889 
Q 3016 1369 3016 2328 
Q 3016 3291 2770 3770 
Q 2525 4250 2034 4250 
z
M 2034 4750 
Q 2819 4750 3233 4129 
Q 3647 3509 3647 2328 
Q 3647 1150 3233 529 
Q 2819 -91 2034 -91 
Q 1250 -91 836 529 
Q 422 1150 422 2328 
Q 422 3509 836 4129 
Q 1250 4750 2034 4750 
z
" transform="scale(0.015625)"/>
        <path id="DejaVuSans-2212" d="M 678 2272 
L 4684 2272 
L 4684 1741 
L 678 1741 
L 678 2272 
z
" transform="scale(0.015625)"/>
       </defs>
       <use xlink:href="#DejaVuSans-31" transform="translate(0 0.684375)"/>
       <use xlink:href="#DejaVuSans-30" transform="translate(63.623047 0.684375)"/>
       <use xlink:href="#DejaVuSans-2212" transform="translate(128.203125 38.965625) scale(0.7)"/>
       <use xlink:href="#DejaVuSans-31" transform="translate(186.855469 38.965625) scale(0.7)"/>
      </g>
     </g>
    </g>
    <g id="xtick_2">
     <g id="line2d_2">
      <g>
       <use xlink:href="#m04ceea3b6e" x="322.484182" y="330.172" style="stroke: #000000; stroke-width: 0.8"/>
      </g>
     </g>
     <g id="text_2">
      <!-- $\mathdefault{10^{0}}$ -->
      <g transform="translate(308.404182 349.3295) scale(0.16 -0.16)">
       <use xlink:href="#DejaVuSans-31" transform="translate(0 0.765625)"/>
       <use xlink:href="#DejaVuSans-30" transform="translate(63.623047 0.765625)"/>
       <use xlink:href="#DejaVuSans-30" transform="translate(128.203125 39.046875) scale(0.7)"/>
      </g>
     </g>
    </g>
    <g id="xtick_3">
     <g id="line2d_3">
      <g>
       <use xlink:href="#m04ceea3b6e" x="489.347364" y="330.172" style="stroke: #000000; stroke-width: 0.8"/>
      </g>
     </g>
     <g id="text_3">
      <!-- $\mathdefault{10^{1}}$ -->
      <g transform="translate(475.267364 349.3295) scale(0.16 -0.16)">
       <use xlink:href="#DejaVuSans-31" transform="translate(0 0.684375)"/>
       <use xlink:href="#DejaVuSans-30" transform="translate(63.623047 0.684375)"/>
       <use xlink:href="#DejaVuSans-31" transform="translate(128.203125 38.965625) scale(0.7)"/>
      </g>
     </g>
    </g>
    <g id="xtick_4">
     <g id="line2d_4">
      <defs>
       <path id="ma8e1ee7925" d="M 0 0 
L 0 2 
" style="stroke: #000000; stroke-width: 0.6"/>
      </defs>
      <g>
       <use xlink:href="#ma8e1ee7925" x="205.851823" y="330.172" style="stroke: #000000; stroke-width: 0.6"/>
      </g>
     </g>
    </g>
    <g id="xtick_5">
     <g id="line2d_5">
      <g>
       <use xlink:href="#ma8e1ee7925" x="235.234971" y="330.172" style="stroke: #000000; stroke-width: 0.6"/>
      </g>
     </g>
    </g>
    <g id="xtick_6">
     <g id="line2d_6">
      <g>
       <use xlink:href="#ma8e1ee7925" x="256.082646" y="330.172" style="stroke: #000000; stroke-width: 0.6"/>
      </g>
     </g>
    </g>
    <g id="xtick_7">
     <g id="line2d_7">
      <g>
       <use xlink:href="#ma8e1ee7925" x="272.253359" y="330.172" style="stroke: #000000; stroke-width: 0.6"/>
      </g>
     </g>
    </g>
    <g id="xtick_8">
     <g id="line2d_8">
      <g>
       <use xlink:href="#ma8e1ee7925" x="285.465794" y="330.172" style="stroke: #000000; stroke-width: 0.6"/>
      </g>
     </g>
    </g>
    <g id="xtick_9">
     <g id="line2d_9">
      <g>
       <use xlink:href="#ma8e1ee7925" x="296.636748" y="330.172" style="stroke: #000000; stroke-width: 0.6"/>
      </g>
     </g>
    </g>
    <g id="xtick_10">
     <g id="line2d_10">
      <g>
       <use xlink:href="#ma8e1ee7925" x="306.313469" y="330.172" style="stroke: #000000; stroke-width: 0.6"/>
      </g>
     </g>
    </g>
    <g id="xtick_11">
     <g id="line2d_11">
      <g>
       <use xlink:href="#ma8e1ee7925" x="314.848941" y="330.172" style="stroke: #000000; stroke-width: 0.6"/>
      </g>
     </g>
    </g>
    <g id="xtick_12">
     <g id="line2d_12">
      <g>
       <use xlink:href="#ma8e1ee7925" x="372.715005" y="330.172" style="stroke: #000000; stroke-width: 0.6"/>
      </g>
     </g>
    </g>
    <g id="xtick_13">
     <g id="line2d_13">
      <g>
       <use xlink:href="#ma8e1ee7925" x="402.098152" y="330.172" style="stroke: #000000; stroke-width: 0.6"/>
      </g>
     </g>
    </g>
    <g id="xtick_14">
     <g id="line2d_14">
      <g>
       <use xlink:href="#ma8e1ee7925" x="422.945828" y="330.172" style="stroke: #000000; stroke-width: 0.6"/>
      </g>
     </g>
    </g>
    <g id="xtick_15">
     <g id="line2d_15">
      <g>
       <use xlink:href="#ma8e1ee7925" x="439.116541" y="330.172" style="stroke: #000000; stroke-width: 0.6"/>
      </g>
     </g>
    </g>
    <g id="xtick_16">
     <g id="line2d_16">
      <g>
       <use xlink:href="#ma8e1ee7925" x="452.328975" y="330.172" style="stroke: #000000; stroke-width: 0.6"/>
      </g>
     </g>
    </g>
    <g id="xtick_17">
     <g id="line2d_17">
      <g>
       <use xlink:href="#ma8e1ee7925" x="463.49993" y="330.172" style="stroke: #000000; stroke-width: 0.6"/>
      </g>
     </g>
    </g>
    <g id="xtick_18">
     <g id="line2d_18">
      <g>
       <use xlink:href="#ma8e1ee7925" x="473.176651" y="330.172" style="stroke: #000000; stroke-width: 0.6"/>
      </g>
     </g>
    </g>
    <g id="xtick_19">
     <g id="line2d_19">
      <g>
       <use xlink:href="#ma8e1ee7925" x="481.712123" y="330.172" style="stroke: #000000; stroke-width: 0.6"/>
      </g>
     </g>
    </g>
    <g id="text_4">
     <!-- Wavenumber $\tilde{\nu}\ (\mu\mathrm{m}^{-1})$ -->
     <g transform="translate(236.7505 372.857) scale(0.18 -0.18)">
      <defs>
       <path id="DejaVuSans-57" d="M 213 4666 
L 850 4666 
L 1831 722 
L 2809 4666 
L 3519 4666 
L 4500 722 
L 5478 4666 
L 6119 4666 
L 4947 0 
L 4153 0 
L 3169 4050 
L 2175 0 
L 1381 0 
L 213 4666 
z
" transform="scale(0.015625)"/>
       <path id="DejaVuSans-61" d="M 2194 1759 
Q 1497 1759 1228 1600 
Q 959 1441 959 1056 
Q 959 750 1161 570 
Q 1363 391 1709 391 
Q 2188 391 2477 730 
Q 2766 1069 2766 1631 
L 2766 1759 
L 2194 1759 
z
M 3341 1997 
L 3341 0 
L 2766 0 
L 2766 531 
Q 2569 213 2275 61 
Q 1981 -91 1556 -91 
Q 1019 -91 701 211 
Q 384 513 384 1019 
Q 384 1609 779 1909 
Q 1175 2209 1959 2209 
L 2766 2209 
L 2766 2266 
Q 2766 2663 2505 2880 
Q 2244 3097 1772 3097 
Q 1472 3097 1187 3025 
Q 903 2953 641 2809 
L 641 3341 
Q 956 3463 1253 3523 
Q 1550 3584 1831 3584 
Q 2591 3584 2966 3190 
Q 3341 2797 3341 1997 
z
" transform="scale(0.015625)"/>
       <path id="DejaVuSans-76" d="M 191 3500 
L 800 3500 
L 1894 563 
L 2988 3500 
L 3597 3500 
L 2284 0 
L 1503 0 
L 191 3500 
z
" transform="scale(0.015625)"/>
       <path id="DejaVuSans-65" d="M 3597 1894 
L 3597 1613 
L 953 1613 
Q 991 1019 1311 708 
Q 1631 397 2203 397 
Q 2534 397 2845 478 
Q 3156 559 3463 722 
L 3463 178 
Q 3153 47 2828 -22 
Q 2503 -91 2169 -91 
Q 1331 -91 842 396 
Q 353 884 353 1716 
Q 353 2575 817 3079 
Q 1281 3584 2069 3584 
Q 2775 3584 3186 3129 
Q 3597 2675 3597 1894 
z
M 3022 2063 
Q 3016 2534 2758 2815 
Q 2500 3097 2075 3097 
Q 1594 3097 1305 2825 
Q 1016 2553 972 2059 
L 3022 2063 
z
" transform="scale(0.015625)"/>
       <path id="DejaVuSans-6e" d="M 3513 2113 
L 3513 0 
L 2938 0 
L 2938 2094 
Q 2938 2591 2744 2837 
Q 2550 3084 2163 3084 
Q 1697 3084 1428 2787 
Q 1159 2491 1159 1978 
L 1159 0 
L 581 0 
L 581 3500 
L 1159 3500 
L 1159 2956 
Q 1366 3272 1645 3428 
Q 1925 3584 2291 3584 
Q 2894 3584 3203 3211 
Q 3513 2838 3513 2113 
z
" transform="scale(0.015625)"/>
       <path id="DejaVuSans-75" d="M 544 1381 
L 544 3500 
L 1119 3500 
L 1119 1403 
Q 1119 906 1312 657 
Q 1506 409 1894 409 
Q 2359 409 2629 706 
Q 2900 1003 2900 1516 
L 2900 3500 
L 3475 3500 
L 3475 0 
L 2900 0 
L 2900 538 
Q 2691 219 2414 64 
Q 2138 -91 1772 -91 
Q 1169 -91 856 284 
Q 544 659 544 1381 
z
M 1991 3584 
L 1991 3584 
z
" transform="scale(0.015625)"/>
       <path id="DejaVuSans-6d" d="M 3328 2828 
Q 3544 3216 3844 3400 
Q 4144 3584 4550 3584 
Q 5097 3584 5394 3201 
Q 5691 2819 5691 2113 
L 5691 0 
L 5113 0 
L 5113 2094 
Q 5113 2597 4934 2840 
Q 4756 3084 4391 3084 
Q 3944 3084 3684 2787 
Q 3425 2491 3425 1978 
L 3425 0 
L 2847 0 
L 2847 2094 
Q 2847 2600 2669 2842 
Q 2491 3084 2119 3084 
Q 1678 3084 1418 2786 
Q 1159 2488 1159 1978 
L 1159 0 
L 581 0 
L 581 3500 
L 1159 3500 
L 1159 2956 
Q 1356 3278 1631 3431 
Q 1906 3584 2284 3584 
Q 2666 3584 2933 3390 
Q 3200 3197 3328 2828 
z
" transform="scale(0.015625)"/>
       <path id="DejaVuSans-62" d="M 3116 1747 
Q 3116 2381 2855 2742 
Q 2594 3103 2138 3103 
Q 1681 3103 1420 2742 
Q 1159 2381 1159 1747 
Q 1159 1113 1420 752 
Q 1681 391 2138 391 
Q 2594 391 2855 752 
Q 3116 1113 3116 1747 
z
M 1159 2969 
Q 1341 3281 1617 3432 
Q 1894 3584 2278 3584 
Q 2916 3584 3314 3078 
Q 3713 2572 3713 1747 
Q 3713 922 3314 415 
Q 2916 -91 2278 -91 
Q 1894 -91 1617 61 
Q 1341 213 1159 525 
L 1159 0 
L 581 0 
L 581 4863 
L 1159 4863 
L 1159 2969 
z
" transform="scale(0.015625)"/>
       <path id="DejaVuSans-72" d="M 2631 2963 
Q 2534 3019 2420 3045 
Q 2306 3072 2169 3072 
Q 1681 3072 1420 2755 
Q 1159 2438 1159 1844 
L 1159 0 
L 581 0 
L 581 3500 
L 1159 3500 
L 1159 2956 
Q 1341 3275 1631 3429 
Q 1922 3584 2338 3584 
Q 2397 3584 2469 3576 
Q 2541 3569 2628 3553 
L 2631 2963 
z
" transform="scale(0.015625)"/>
       <path id="DejaVuSans-20" transform="scale(0.015625)"/>
       <path id="DejaVuSans-303" d="M -1619 4281 
L -1797 4453 
Q -1866 4516 -1917 4545 
Q -1969 4575 -2009 4575 
Q -2128 4575 -2184 4461 
Q -2241 4347 -2247 4091 
L -2638 4091 
Q -2631 4513 -2472 4742 
Q -2313 4972 -2028 4972 
Q -1909 4972 -1809 4928 
Q -1709 4884 -1594 4781 
L -1416 4609 
Q -1347 4547 -1295 4517 
Q -1244 4488 -1203 4488 
Q -1084 4488 -1028 4602 
Q -972 4716 -966 4972 
L -575 4972 
Q -581 4550 -740 4320 
Q -900 4091 -1184 4091 
Q -1303 4091 -1403 4134 
Q -1503 4178 -1619 4281 
z
" transform="scale(0.015625)"/>
       <path id="DejaVuSans-Oblique-3bd" d="M 959 0 
L 572 3500 
L 1191 3500 
L 1522 563 
Q 1972 950 2391 1488 
Q 2706 1891 2788 2241 
Q 2825 2406 2809 2719 
Q 2794 3091 2544 3500 
L 3125 3500 
L 3125 3500 
Q 3288 3222 3353 2834 
Q 3416 2478 3369 2234 
Q 3250 1622 2719 1075 
Q 2025 363 1572 0 
L 959 0 
z
" transform="scale(0.015625)"/>
       <path id="DejaVuSans-28" d="M 1984 4856 
Q 1566 4138 1362 3434 
Q 1159 2731 1159 2009 
Q 1159 1288 1364 580 
Q 1569 -128 1984 -844 
L 1484 -844 
Q 1016 -109 783 600 
Q 550 1309 550 2009 
Q 550 2706 781 3412 
Q 1013 4119 1484 4856 
L 1984 4856 
z
" transform="scale(0.015625)"/>
       <path id="DejaVuSans-Oblique-3bc" d="M -84 -1331 
L 856 3500 
L 1434 3500 
L 1009 1322 
Q 997 1256 987 1175 
Q 978 1094 978 1013 
Q 978 722 1161 565 
Q 1344 409 1684 409 
Q 2147 409 2431 671 
Q 2716 934 2816 1459 
L 3213 3500 
L 3788 3500 
L 3266 809 
Q 3253 750 3248 706 
Q 3244 663 3244 628 
Q 3244 531 3283 486 
Q 3322 441 3406 441 
Q 3438 441 3492 456 
Q 3547 472 3647 513 
L 3559 50 
Q 3422 -19 3297 -55 
Q 3172 -91 3053 -91 
Q 2847 -91 2730 40 
Q 2613 172 2613 403 
Q 2438 153 2195 31 
Q 1953 -91 1625 -91 
Q 1334 -91 1117 43 
Q 900 178 831 397 
L 494 -1331 
L -84 -1331 
z
" transform="scale(0.015625)"/>
       <path id="DejaVuSans-29" d="M 513 4856 
L 1013 4856 
Q 1481 4119 1714 3412 
Q 1947 2706 1947 2009 
Q 1947 1309 1714 600 
Q 1481 -109 1013 -844 
L 513 -844 
Q 928 -128 1133 580 
Q 1338 1288 1338 2009 
Q 1338 2731 1133 3434 
Q 928 4138 513 4856 
z
" transform="scale(0.015625)"/>
      </defs>
      <use xlink:href="#DejaVuSans-57" transform="translate(0 0.684375)"/>
      <use xlink:href="#DejaVuSans-61" transform="translate(98.876953 0.684375)"/>
      <use xlink:href="#DejaVuSans-76" transform="translate(160.15625 0.684375)"/>
      <use xlink:href="#DejaVuSans-65" transform="translate(219.335938 0.684375)"/>
      <use xlink:href="#DejaVuSans-6e" transform="translate(280.859375 0.684375)"/>
      <use xlink:href="#DejaVuSans-75" transform="translate(344.238281 0.684375)"/>
      <use xlink:href="#DejaVuSans-6d" transform="translate(407.617188 0.684375)"/>
      <use xlink:href="#DejaVuSans-62" transform="translate(505.029297 0.684375)"/>
      <use xlink:href="#DejaVuSans-65" transform="translate(568.505859 0.684375)"/>
      <use xlink:href="#DejaVuSans-72" transform="translate(630.029297 0.684375)"/>
      <use xlink:href="#DejaVuSans-20" transform="translate(671.142578 0.684375)"/>
      <use xlink:href="#DejaVuSans-303" transform="translate(763.113281 3.95)"/>
      <use xlink:href="#DejaVuSans-Oblique-3bd" transform="translate(702.929688 0.684375)"/>
      <use xlink:href="#DejaVuSans-28" transform="translate(791.259441 0.684375)"/>
      <use xlink:href="#DejaVuSans-Oblique-3bc" transform="translate(830.273113 0.684375)"/>
      <use xlink:href="#DejaVuSans-6d" transform="translate(893.89616 0.684375)"/>
      <use xlink:href="#DejaVuSans-2212" transform="translate(992.2653 38.965625) scale(0.7)"/>
      <use xlink:href="#DejaVuSans-31" transform="translate(1050.917644 38.965625) scale(0.7)"/>
      <use xlink:href="#DejaVuSans-29" transform="translate(1098.188152 0.684375)"/>
     </g>
    </g>
   </g>
   <g id="matplotlib.axis_2">
    <g id="ytick_1">
     <g id="line2d_20">
      <defs>
       <path id="mb4e2b3426e" d="M 0 0 
L -3.5 0 
" style="stroke: #000000; stroke-width: 0.8"/>
      </defs>
      <g>
       <use xlink:href="#mb4e2b3426e" x="155.621" y="315.949636" style="stroke: #000000; stroke-width: 0.8"/>
      </g>
     </g>
     <g id="text_5">
      <!-- 0.000000000 -->
      <g transform="translate(41.736 322.028386) scale(0.16 -0.16)">
       <defs>
        <path id="DejaVuSans-2e" d="M 684 794 
L 1344 794 
L 1344 0 
L 684 0 
L 684 794 
z
" transform="scale(0.015625)"/>
       </defs>
       <use xlink:href="#DejaVuSans-30"/>
       <use xlink:href="#DejaVuSans-2e" transform="translate(63.623047 0)"/>
       <use xlink:href="#DejaVuSans-30" transform="translate(95.410156 0)"/>
       <use xlink:href="#DejaVuSans-30" transform="translate(159.033203 0)"/>
       <use xlink:href="#DejaVuSans-30" transform="translate(222.65625 0)"/>
       <use xlink:href="#DejaVuSans-30" transform="translate(286.279297 0)"/>
       <use xlink:href="#DejaVuSans-30" transform="translate(349.902344 0)"/>
       <use xlink:href="#DejaVuSans-30" transform="translate(413.525391 0)"/>
       <use xlink:href="#DejaVuSans-30" transform="translate(477.148438 0)"/>
       <use xlink:href="#DejaVuSans-30" transform="translate(540.771484 0)"/>
       <use xlink:href="#DejaVuSans-30" transform="translate(604.394531 0)"/>
      </g>
     </g>
    </g>
    <g id="ytick_2">
     <g id="line2d_21">
      <g>
       <use xlink:href="#mb4e2b3426e" x="155.621" y="278.44467" style="stroke: #000000; stroke-width: 0.8"/>
      </g>
     </g>
     <g id="text_6">
      <!-- 0.000000025 -->
      <g transform="translate(41.736 284.52342) scale(0.16 -0.16)">
       <defs>
        <path id="DejaVuSans-32" d="M 1228 531 
L 3431 531 
L 3431 0 
L 469 0 
L 469 531 
Q 828 903 1448 1529 
Q 2069 2156 2228 2338 
Q 2531 2678 2651 2914 
Q 2772 3150 2772 3378 
Q 2772 3750 2511 3984 
Q 2250 4219 1831 4219 
Q 1534 4219 1204 4116 
Q 875 4013 500 3803 
L 500 4441 
Q 881 4594 1212 4672 
Q 1544 4750 1819 4750 
Q 2544 4750 2975 4387 
Q 3406 4025 3406 3419 
Q 3406 3131 3298 2873 
Q 3191 2616 2906 2266 
Q 2828 2175 2409 1742 
Q 1991 1309 1228 531 
z
" transform="scale(0.015625)"/>
        <path id="DejaVuSans-35" d="M 691 4666 
L 3169 4666 
L 3169 4134 
L 1269 4134 
L 1269 2991 
Q 1406 3038 1543 3061 
Q 1681 3084 1819 3084 
Q 2600 3084 3056 2656 
Q 3513 2228 3513 1497 
Q 3513 744 3044 326 
Q 2575 -91 1722 -91 
Q 1428 -91 1123 -41 
Q 819 9 494 109 
L 494 744 
Q 775 591 1075 516 
Q 1375 441 1709 441 
Q 2250 441 2565 725 
Q 2881 1009 2881 1497 
Q 2881 1984 2565 2268 
Q 2250 2553 1709 2553 
Q 1456 2553 1204 2497 
Q 953 2441 691 2322 
L 691 4666 
z
" transform="scale(0.015625)"/>
       </defs>
       <use xlink:href="#DejaVuSans-30"/>
       <use xlink:href="#DejaVuSans-2e" transform="translate(63.623047 0)"/>
       <use xlink:href="#DejaVuSans-30" transform="translate(95.410156 0)"/>
       <use xlink:href="#DejaVuSans-30" transform="translate(159.033203 0)"/>
       <use xlink:href="#DejaVuSans-30" transform="translate(222.65625 0)"/>
       <use xlink:href="#DejaVuSans-30" transform="translate(286.279297 0)"/>
       <use xlink:href="#DejaVuSans-30" transform="translate(349.902344 0)"/>
       <use xlink:href="#DejaVuSans-30" transform="translate(413.525391 0)"/>
       <use xlink:href="#DejaVuSans-30" transform="translate(477.148438 0)"/>
       <use xlink:href="#DejaVuSans-32" transform="translate(540.771484 0)"/>
       <use xlink:href="#DejaVuSans-35" transform="translate(604.394531 0)"/>
      </g>
     </g>
    </g>
    <g id="ytick_3">
     <g id="line2d_22">
      <g>
       <use xlink:href="#mb4e2b3426e" x="155.621" y="240.939703" style="stroke: #000000; stroke-width: 0.8"/>
      </g>
     </g>
     <g id="text_7">
      <!-- 0.000000050 -->
      <g transform="translate(41.736 247.018453) scale(0.16 -0.16)">
       <use xlink:href="#DejaVuSans-30"/>
       <use xlink:href="#DejaVuSans-2e" transform="translate(63.623047 0)"/>
       <use xlink:href="#DejaVuSans-30" transform="translate(95.410156 0)"/>
       <use xlink:href="#DejaVuSans-30" transform="translate(159.033203 0)"/>
       <use xlink:href="#DejaVuSans-30" transform="translate(222.65625 0)"/>
       <use xlink:href="#DejaVuSans-30" transform="translate(286.279297 0)"/>
       <use xlink:href="#DejaVuSans-30" transform="translate(349.902344 0)"/>
       <use xlink:href="#DejaVuSans-30" transform="translate(413.525391 0)"/>
       <use xlink:href="#DejaVuSans-30" transform="translate(477.148438 0)"/>
       <use xlink:href="#DejaVuSans-35" transform="translate(540.771484 0)"/>
       <use xlink:href="#DejaVuSans-30" transform="translate(604.394531 0)"/>
      </g>
     </g>
    </g>
    <g id="ytick_4">
     <g id="line2d_23">
      <g>
       <use xlink:href="#mb4e2b3426e" x="155.621" y="203.434737" style="stroke: #000000; stroke-width: 0.8"/>
      </g>
     </g>
     <g id="text_8">
      <!-- 0.000000075 -->
      <g transform="translate(41.736 209.513487) scale(0.16 -0.16)">
       <defs>
        <path id="DejaVuSans-37" d="M 525 4666 
L 3525 4666 
L 3525 4397 
L 1831 0 
L 1172 0 
L 2766 4134 
L 525 4134 
L 525 4666 
z
" transform="scale(0.015625)"/>
       </defs>
       <use xlink:href="#DejaVuSans-30"/>
       <use xlink:href="#DejaVuSans-2e" transform="translate(63.623047 0)"/>
       <use xlink:href="#DejaVuSans-30" transform="translate(95.410156 0)"/>
       <use xlink:href="#DejaVuSans-30" transform="translate(159.033203 0)"/>
       <use xlink:href="#DejaVuSans-30" transform="translate(222.65625 0)"/>
       <use xlink:href="#DejaVuSans-30" transform="translate(286.279297 0)"/>
       <use xlink:href="#DejaVuSans-30" transform="translate(349.902344 0)"/>
       <use xlink:href="#DejaVuSans-30" transform="translate(413.525391 0)"/>
       <use xlink:href="#DejaVuSans-30" transform="translate(477.148438 0)"/>
       <use xlink:href="#DejaVuSans-37" transform="translate(540.771484 0)"/>
       <use xlink:href="#DejaVuSans-35" transform="translate(604.394531 0)"/>
      </g>
     </g>
    </g>
    <g id="ytick_5">
     <g id="line2d_24">
      <g>
       <use xlink:href="#mb4e2b3426e" x="155.621" y="165.92977" style="stroke: #000000; stroke-width: 0.8"/>
      </g>
     </g>
     <g id="text_9">
      <!-- 0.000000100 -->
      <g transform="translate(41.736 172.00852) scale(0.16 -0.16)">
       <use xlink:href="#DejaVuSans-30"/>
       <use xlink:href="#DejaVuSans-2e" transform="translate(63.623047 0)"/>
       <use xlink:href="#DejaVuSans-30" transform="translate(95.410156 0)"/>
       <use xlink:href="#DejaVuSans-30" transform="translate(159.033203 0)"/>
       <use xlink:href="#DejaVuSans-30" transform="translate(222.65625 0)"/>
       <use xlink:href="#DejaVuSans-30" transform="translate(286.279297 0)"/>
       <use xlink:href="#DejaVuSans-30" transform="translate(349.902344 0)"/>
       <use xlink:href="#DejaVuSans-30" transform="translate(413.525391 0)"/>
       <use xlink:href="#DejaVuSans-31" transform="translate(477.148438 0)"/>
       <use xlink:href="#DejaVuSans-30" transform="translate(540.771484 0)"/>
       <use xlink:href="#DejaVuSans-30" transform="translate(604.394531 0)"/>
      </g>
     </g>
    </g>
    <g id="ytick_6">
     <g id="line2d_25">
      <g>
       <use xlink:href="#mb4e2b3426e" x="155.621" y="128.424804" style="stroke: #000000; stroke-width: 0.8"/>
      </g>
     </g>
     <g id="text_10">
      <!-- 0.000000125 -->
      <g transform="translate(41.736 134.503554) scale(0.16 -0.16)">
       <use xlink:href="#DejaVuSans-30"/>
       <use xlink:href="#DejaVuSans-2e" transform="translate(63.623047 0)"/>
       <use xlink:href="#DejaVuSans-30" transform="translate(95.410156 0)"/>
       <use xlink:href="#DejaVuSans-30" transform="translate(159.033203 0)"/>
       <use xlink:href="#DejaVuSans-30" transform="translate(222.65625 0)"/>
       <use xlink:href="#DejaVuSans-30" transform="translate(286.279297 0)"/>
       <use xlink:href="#DejaVuSans-30" transform="translate(349.902344 0)"/>
       <use xlink:href="#DejaVuSans-30" transform="translate(413.525391 0)"/>
       <use xlink:href="#DejaVuSans-31" transform="translate(477.148438 0)"/>
       <use xlink:href="#DejaVuSans-32" transform="translate(540.771484 0)"/>
       <use xlink:href="#DejaVuSans-35" transform="translate(604.394531 0)"/>
      </g>
     </g>
    </g>
    <g id="ytick_7">
     <g id="line2d_26">
      <g>
       <use xlink:href="#mb4e2b3426e" x="155.621" y="90.919837" style="stroke: #000000; stroke-width: 0.8"/>
      </g>
     </g>
     <g id="text_11">
      <!-- 0.000000150 -->
      <g transform="translate(41.736 96.998587) scale(0.16 -0.16)">
       <use xlink:href="#DejaVuSans-30"/>
       <use xlink:href="#DejaVuSans-2e" transform="translate(63.623047 0)"/>
       <use xlink:href="#DejaVuSans-30" transform="translate(95.410156 0)"/>
       <use xlink:href="#DejaVuSans-30" transform="translate(159.033203 0)"/>
       <use xlink:href="#DejaVuSans-30" transform="translate(222.65625 0)"/>
       <use xlink:href="#DejaVuSans-30" transform="translate(286.279297 0)"/>
       <use xlink:href="#DejaVuSans-30" transform="translate(349.902344 0)"/>
       <use xlink:href="#DejaVuSans-30" transform="translate(413.525391 0)"/>
       <use xlink:href="#DejaVuSans-31" transform="translate(477.148438 0)"/>
       <use xlink:href="#DejaVuSans-35" transform="translate(540.771484 0)"/>
       <use xlink:href="#DejaVuSans-30" transform="translate(604.394531 0)"/>
      </g>
     </g>
    </g>
    <g id="ytick_8">
     <g id="line2d_27">
      <g>
       <use xlink:href="#mb4e2b3426e" x="155.621" y="53.414871" style="stroke: #000000; stroke-width: 0.8"/>
      </g>
     </g>
     <g id="text_12">
      <!-- 0.000000175 -->
      <g transform="translate(41.736 59.493621) scale(0.16 -0.16)">
       <use xlink:href="#DejaVuSans-30"/>
       <use xlink:href="#DejaVuSans-2e" transform="translate(63.623047 0)"/>
       <use xlink:href="#DejaVuSans-30" transform="translate(95.410156 0)"/>
       <use xlink:href="#DejaVuSans-30" transform="translate(159.033203 0)"/>
       <use xlink:href="#DejaVuSans-30" transform="translate(222.65625 0)"/>
       <use xlink:href="#DejaVuSans-30" transform="translate(286.279297 0)"/>
       <use xlink:href="#DejaVuSans-30" transform="translate(349.902344 0)"/>
       <use xlink:href="#DejaVuSans-30" transform="translate(413.525391 0)"/>
       <use xlink:href="#DejaVuSans-31" transform="translate(477.148438 0)"/>
       <use xlink:href="#DejaVuSans-37" transform="translate(540.771484 0)"/>
       <use xlink:href="#DejaVuSans-35" transform="translate(604.394531 0)"/>
      </g>
     </g>
    </g>
    <g id="text_13">
     <!-- $B_\nu\ \left[\mathrm{W\ m^{-2}\ Hz^{-1}\ sr^{-1}}\right]$ -->
     <g transform="translate(33.992562 268.856) rotate(-90) scale(0.18 -0.18)">
      <defs>
       <path id="DejaVuSans-Oblique-42" d="M 1081 4666 
L 2694 4666 
Q 3350 4666 3675 4422 
Q 4000 4178 4000 3688 
Q 4000 3238 3720 2911 
Q 3441 2584 2988 2516 
Q 3375 2428 3569 2181 
Q 3763 1934 3763 1522 
Q 3763 819 3242 409 
Q 2722 0 1819 0 
L 172 0 
L 1081 4666 
z
M 1234 2228 
L 903 519 
L 1919 519 
Q 2491 519 2800 781 
Q 3109 1044 3109 1522 
Q 3109 1891 2904 2059 
Q 2700 2228 2247 2228 
L 1234 2228 
z
M 1606 4147 
L 1331 2741 
L 2272 2741 
Q 2775 2741 3058 2959 
Q 3341 3178 3341 3566 
Q 3341 3869 3150 4008 
Q 2959 4147 2541 4147 
L 1606 4147 
z
" transform="scale(0.015625)"/>
       <path id="DejaVuSans-5b" d="M 550 4863 
L 1875 4863 
L 1875 4416 
L 1125 4416 
L 1125 -397 
L 1875 -397 
L 1875 -844 
L 550 -844 
L 550 4863 
z
" transform="scale(0.015625)"/>
       <path id="DejaVuSans-48" d="M 628 4666 
L 1259 4666 
L 1259 2753 
L 3553 2753 
L 3553 4666 
L 4184 4666 
L 4184 0 
L 3553 0 
L 3553 2222 
L 1259 2222 
L 1259 0 
L 628 0 
L 628 4666 
z
" transform="scale(0.015625)"/>
       <path id="DejaVuSans-7a" d="M 353 3500 
L 3084 3500 
L 3084 2975 
L 922 459 
L 3084 459 
L 3084 0 
L 275 0 
L 275 525 
L 2438 3041 
L 353 3041 
L 353 3500 
z
" transform="scale(0.015625)"/>
       <path id="DejaVuSans-73" d="M 2834 3397 
L 2834 2853 
Q 2591 2978 2328 3040 
Q 2066 3103 1784 3103 
Q 1356 3103 1142 2972 
Q 928 2841 928 2578 
Q 928 2378 1081 2264 
Q 1234 2150 1697 2047 
L 1894 2003 
Q 2506 1872 2764 1633 
Q 3022 1394 3022 966 
Q 3022 478 2636 193 
Q 2250 -91 1575 -91 
Q 1294 -91 989 -36 
Q 684 19 347 128 
L 347 722 
Q 666 556 975 473 
Q 1284 391 1588 391 
Q 1994 391 2212 530 
Q 2431 669 2431 922 
Q 2431 1156 2273 1281 
Q 2116 1406 1581 1522 
L 1381 1569 
Q 847 1681 609 1914 
Q 372 2147 372 2553 
Q 372 3047 722 3315 
Q 1072 3584 1716 3584 
Q 2034 3584 2315 3537 
Q 2597 3491 2834 3397 
z
" transform="scale(0.015625)"/>
       <path id="DejaVuSans-5d" d="M 1947 4863 
L 1947 -844 
L 622 -844 
L 622 -397 
L 1369 -397 
L 1369 4416 
L 622 4416 
L 622 4863 
L 1947 4863 
z
" transform="scale(0.015625)"/>
      </defs>
      <use xlink:href="#DejaVuSans-Oblique-42" transform="translate(0 0.765625)"/>
      <use xlink:href="#DejaVuSans-Oblique-3bd" transform="translate(68.603516 -15.640625) scale(0.7)"/>
      <use xlink:href="#DejaVuSans-5b" transform="translate(142.909832 0.765625)"/>
      <use xlink:href="#DejaVuSans-57" transform="translate(181.923503 0.765625)"/>
      <use xlink:href="#DejaVuSans-6d" transform="translate(313.270835 0.765625)"/>
      <use xlink:href="#DejaVuSans-2212" transform="translate(411.639976 39.046875) scale(0.7)"/>
      <use xlink:href="#DejaVuSans-32" transform="translate(470.292319 39.046875) scale(0.7)"/>
      <use xlink:href="#DejaVuSans-48" transform="translate(550.033206 0.765625)"/>
      <use xlink:href="#DejaVuSans-7a" transform="translate(625.228518 0.765625)"/>
      <use xlink:href="#DejaVuSans-2212" transform="translate(678.675784 39.046875) scale(0.7)"/>
      <use xlink:href="#DejaVuSans-31" transform="translate(737.328127 39.046875) scale(0.7)"/>
      <use xlink:href="#DejaVuSans-73" transform="translate(817.069014 0.765625)"/>
      <use xlink:href="#DejaVuSans-72" transform="translate(869.168623 0.765625)"/>
      <use xlink:href="#DejaVuSans-2212" transform="translate(911.238936 39.046875) scale(0.7)"/>
      <use xlink:href="#DejaVuSans-31" transform="translate(969.891279 39.046875) scale(0.7)"/>
      <use xlink:href="#DejaVuSans-5d" transform="translate(1017.161787 0.765625)"/>
     </g>
    </g>
   </g>
   <g id="line2d_28">
    <path d="M 155.621 312.098004 
L 164.435783 311.083845 
L 172.33236 309.956937 
L 179.494372 308.717802 
L 186.105459 307.35565 
L 192.349264 305.843448 
L 198.225786 304.188205 
L 203.735026 302.402376 
L 208.876983 300.504041 
L 213.835299 298.435759 
L 218.609973 296.198273 
L 223.201006 293.795033 
L 227.608398 291.232382 
L 231.832148 288.51966 
L 235.872257 285.669249 
L 239.912366 282.548517 
L 243.952475 279.136536 
L 247.808943 275.588063 
L 251.665411 271.735173 
L 255.521878 267.558258 
L 259.378346 263.037637 
L 263.051173 258.394909 
L 266.723999 253.40636 
L 270.396825 248.056335 
L 274.253293 242.033866 
L 278.109761 235.581813 
L 281.966229 228.68762 
L 285.822696 221.341922 
L 289.862805 213.156366 
L 293.902914 204.469044 
L 298.126665 194.857823 
L 302.534057 184.271406 
L 307.308731 172.200331 
L 312.450688 158.574912 
L 318.32721 142.35826 
L 326.958352 117.805828 
L 336.140418 91.853761 
L 341.098734 78.514876 
L 344.955202 68.747625 
L 348.260745 60.946443 
L 351.199007 54.55573 
L 353.769985 49.454403 
L 356.157322 45.181415 
L 358.361018 41.675731 
L 360.381073 38.864624 
L 362.217486 36.667471 
L 363.870258 34.999466 
L 365.52303 33.639662 
L 366.99216 32.700964 
L 368.461291 32.026135 
L 369.74678 31.659074 
L 371.032269 31.506372 
L 372.317758 31.57322 
L 373.603248 31.864403 
L 374.888737 32.384258 
L 376.174226 33.136645 
L 377.459715 34.124901 
L 378.928846 35.546706 
L 380.397976 37.283418 
L 382.050748 39.616263 
L 383.70352 42.351689 
L 385.539933 45.862455 
L 387.376347 49.8658 
L 389.396401 54.830122 
L 391.600097 60.899703 
L 393.803793 67.627741 
L 396.19113 75.622822 
L 398.762109 84.999048 
L 401.70037 96.594741 
L 405.005913 110.607299 
L 408.862381 127.978706 
L 414.187979 153.116104 
L 424.288252 200.95854 
L 428.328361 218.905984 
L 431.817546 233.407857 
L 434.939449 245.434321 
L 437.694069 255.215823 
L 440.265047 263.597851 
L 442.836026 271.234581 
L 445.223363 277.651629 
L 447.6107 283.424468 
L 449.814396 288.194242 
L 452.018092 292.446154 
L 454.221787 296.204073 
L 456.425483 299.496378 
L 458.445538 302.132488 
L 460.465592 304.430572 
L 462.485647 306.418202 
L 464.689343 308.265465 
L 466.893039 309.813073 
L 469.096734 311.096578 
L 471.484072 312.228472 
L 474.05505 313.191992 
L 476.80967 313.98162 
L 479.931572 314.635053 
L 483.420757 315.135199 
L 487.644508 315.511884 
L 493.153747 315.768426 
L 501.417607 315.908778 
L 520.883587 315.94915 
L 522.72 315.94934 
L 522.72 315.94934 
" clip-path="url(#p202812e840)" style="fill: none; stroke: #1f77b4; stroke-width: 2; stroke-linecap: square"/>
   </g>
   <g id="line2d_29">
    <path d="M 155.621 313.337694 
L 166.455838 312.487338 
L 176.005187 311.521603 
L 184.636329 310.431111 
L 192.532905 309.213854 
L 199.878558 307.858058 
L 206.673287 306.380776 
L 213.100733 304.757315 
L 219.160897 302.999507 
L 225.037419 301.060311 
L 230.546659 299.011259 
L 235.872257 296.799081 
L 241.197855 294.34179 
L 246.339812 291.721213 
L 251.481769 288.843516 
L 256.440085 285.814803 
L 261.398401 282.529864 
L 266.540358 278.849341 
L 271.682315 274.892109 
L 277.007913 270.511945 
L 282.700794 265.536172 
L 288.944599 259.778483 
L 296.841176 252.173401 
L 312.450688 237.063475 
L 317.592645 232.449342 
L 321.816395 228.9514 
L 325.489222 226.193663 
L 328.794765 223.987629 
L 331.733027 222.28224 
L 334.487646 220.929887 
L 337.058625 219.904965 
L 339.445962 219.175615 
L 341.833299 218.675397 
L 344.036995 218.428818 
L 346.240691 218.39883 
L 348.444387 218.594071 
L 350.648083 219.021878 
L 352.851778 219.688106 
L 355.055474 220.596945 
L 357.25917 221.750749 
L 359.462866 223.149877 
L 361.850203 224.940327 
L 364.23754 227.011334 
L 366.808519 229.54563 
L 369.563139 232.594124 
L 372.5014 236.199192 
L 375.623302 240.389386 
L 379.112487 245.44823 
L 383.336238 251.985431 
L 389.396401 261.834137 
L 398.394826 276.435592 
L 402.802218 283.13622 
L 406.475044 288.326992 
L 409.780588 292.627425 
L 412.90249 296.329218 
L 415.840751 299.474788 
L 418.595371 302.11824 
L 421.349991 304.466361 
L 424.104611 306.525757 
L 426.859231 308.308466 
L 429.61385 309.831049 
L 432.552112 311.191093 
L 435.490373 312.305465 
L 438.612275 313.252951 
L 441.917819 314.029209 
L 445.590645 314.666584 
L 449.814396 315.171099 
L 454.956353 315.548473 
L 461.56744 315.794146 
L 471.667713 315.920571 
L 498.662987 315.949574 
L 522.72 315.949636 
L 522.72 315.949636 
" clip-path="url(#p202812e840)" style="fill: none; stroke: #ff7f0e; stroke-width: 2; stroke-linecap: square"/>
   </g>
   <g id="line2d_30">
    <path d="M 155.621 314.981165 
L 175.454263 314.407919 
L 192.900188 313.682762 
L 209.244266 312.782207 
L 226.690191 311.59115 
L 266.723999 308.743955 
L 276.273348 308.372778 
L 284.537207 308.27 
L 292.250143 308.395953 
L 299.779437 308.743894 
L 307.492372 309.327441 
L 315.939873 310.194321 
L 327.509276 311.62695 
L 344.404278 313.703244 
L 353.402702 314.568461 
L 361.850203 315.160017 
L 370.848628 315.564993 
L 381.499824 315.813572 
L 397.109337 315.930402 
L 444.672439 315.949636 
L 522.72 315.949636 
L 522.72 315.949636 
" clip-path="url(#p202812e840)" style="fill: none; stroke: #2ca02c; stroke-width: 2; stroke-linecap: square"/>
   </g>
   <g id="patch_3">
    <path d="M 155.621 330.172 
L 155.621 17.28 
" style="fill: none; stroke: #000000; stroke-width: 0.8; stroke-linejoin: miter; stroke-linecap: square"/>
   </g>
   <g id="patch_4">
    <path d="M 522.72 330.172 
L 522.72 17.28 
" style="fill: none; stroke: #000000; stroke-width: 0.8; stroke-linejoin: miter; stroke-linecap: square"/>
   </g>
   <g id="patch_5">
    <path d="M 155.621 330.172 
L 522.72 330.172 
" style="fill: none; stroke: #000000; stroke-width: 0.8; stroke-linejoin: miter; stroke-linecap: square"/>
   </g>
   <g id="patch_6">
    <path d="M 155.621 17.28 
L 522.72 17.28 
" style="fill: none; stroke: #000000; stroke-width: 0.8; stroke-linejoin: miter; stroke-linecap: square"/>
   </g>
   <g id="legend_1">
    <g id="patch_7">
     <path d="M 166.821 100.535 
L 314.021 100.535 
Q 317.221 100.535 317.221 97.335 
L 317.221 28.48 
Q 317.221 25.28 314.021 25.28 
L 166.821 25.28 
Q 163.621 25.28 163.621 28.48 
L 163.621 97.335 
Q 163.621 100.535 166.821 100.535 
z
" style="fill: #ffffff; opacity: 0.8; stroke: #cccccc; stroke-linejoin: miter"/>
    </g>
    <g id="line2d_31">
     <path d="M 170.021 38.2375 
L 186.021 38.2375 
L 202.021 38.2375 
" style="fill: none; stroke: #1f77b4; stroke-width: 2; stroke-linecap: square"/>
    </g>
    <g id="text_14">
     <!-- $T=10000\ \mathrm{K}$ -->
     <g transform="translate(214.821 43.8375) scale(0.16 -0.16)">
      <defs>
       <path id="DejaVuSans-Oblique-54" d="M 378 4666 
L 4325 4666 
L 4225 4134 
L 2559 4134 
L 1759 0 
L 1125 0 
L 1925 4134 
L 275 4134 
L 378 4666 
z
" transform="scale(0.015625)"/>
       <path id="DejaVuSans-3d" d="M 678 2906 
L 4684 2906 
L 4684 2381 
L 678 2381 
L 678 2906 
z
M 678 1631 
L 4684 1631 
L 4684 1100 
L 678 1100 
L 678 1631 
z
" transform="scale(0.015625)"/>
       <path id="DejaVuSans-4b" d="M 628 4666 
L 1259 4666 
L 1259 2694 
L 3353 4666 
L 4166 4666 
L 1850 2491 
L 4331 0 
L 3500 0 
L 1259 2247 
L 1259 0 
L 628 0 
L 628 4666 
z
" transform="scale(0.015625)"/>
      </defs>
      <use xlink:href="#DejaVuSans-Oblique-54" transform="translate(0 0.78125)"/>
      <use xlink:href="#DejaVuSans-3d" transform="translate(80.566406 0.78125)"/>
      <use xlink:href="#DejaVuSans-31" transform="translate(183.837891 0.78125)"/>
      <use xlink:href="#DejaVuSans-30" transform="translate(247.460938 0.78125)"/>
      <use xlink:href="#DejaVuSans-30" transform="translate(311.083984 0.78125)"/>
      <use xlink:href="#DejaVuSans-30" transform="translate(374.707031 0.78125)"/>
      <use xlink:href="#DejaVuSans-30" transform="translate(438.330078 0.78125)"/>
      <use xlink:href="#DejaVuSans-4b" transform="translate(534.423503 0.78125)"/>
     </g>
    </g>
    <g id="line2d_32">
     <path d="M 170.021 61.7225 
L 186.021 61.7225 
L 202.021 61.7225 
" style="fill: none; stroke: #ff7f0e; stroke-width: 2; stroke-linecap: square"/>
    </g>
    <g id="text_15">
     <!-- $T=7000\ \mathrm{K}$ -->
     <g transform="translate(214.821 67.3225) scale(0.16 -0.16)">
      <use xlink:href="#DejaVuSans-Oblique-54" transform="translate(0 0.78125)"/>
      <use xlink:href="#DejaVuSans-3d" transform="translate(80.566406 0.78125)"/>
      <use xlink:href="#DejaVuSans-37" transform="translate(183.837891 0.78125)"/>
      <use xlink:href="#DejaVuSans-30" transform="translate(247.460938 0.78125)"/>
      <use xlink:href="#DejaVuSans-30" transform="translate(311.083984 0.78125)"/>
      <use xlink:href="#DejaVuSans-30" transform="translate(374.707031 0.78125)"/>
      <use xlink:href="#DejaVuSans-4b" transform="translate(470.800457 0.78125)"/>
     </g>
    </g>
    <g id="line2d_33">
     <path d="M 170.021 85.2075 
L 186.021 85.2075 
L 202.021 85.2075 
" style="fill: none; stroke: #2ca02c; stroke-width: 2; stroke-linecap: square"/>
    </g>
    <g id="text_16">
     <!-- $T=3000\ \mathrm{K}$ -->
     <g transform="translate(214.821 90.8075) scale(0.16 -0.16)">
      <defs>
       <path id="DejaVuSans-33" d="M 2597 2516 
Q 3050 2419 3304 2112 
Q 3559 1806 3559 1356 
Q 3559 666 3084 287 
Q 2609 -91 1734 -91 
Q 1441 -91 1130 -33 
Q 819 25 488 141 
L 488 750 
Q 750 597 1062 519 
Q 1375 441 1716 441 
Q 2309 441 2620 675 
Q 2931 909 2931 1356 
Q 2931 1769 2642 2001 
Q 2353 2234 1838 2234 
L 1294 2234 
L 1294 2753 
L 1863 2753 
Q 2328 2753 2575 2939 
Q 2822 3125 2822 3475 
Q 2822 3834 2567 4026 
Q 2313 4219 1838 4219 
Q 1578 4219 1281 4162 
Q 984 4106 628 3988 
L 628 4550 
Q 988 4650 1302 4700 
Q 1616 4750 1894 4750 
Q 2613 4750 3031 4423 
Q 3450 4097 3450 3541 
Q 3450 3153 3228 2886 
Q 3006 2619 2597 2516 
z
" transform="scale(0.015625)"/>
      </defs>
      <use xlink:href="#DejaVuSans-Oblique-54" transform="translate(0 0.78125)"/>
      <use xlink:href="#DejaVuSans-3d" transform="translate(80.566406 0.78125)"/>
      <use xlink:href="#DejaVuSans-33" transform="translate(183.837891 0.78125)"/>
      <use xlink:href="#DejaVuSans-30" transform="translate(247.460938 0.78125)"/>
      <use xlink:href="#DejaVuSans-30" transform="translate(311.083984 0.78125)"/>
      <use xlink:href="#DejaVuSans-30" transform="translate(374.707031 0.78125)"/>
      <use xlink:href="#DejaVuSans-4b" transform="translate(470.800457 0.78125)"/>
     </g>
    </g>
   </g>
  </g>
 </g>
 <defs>
  <clipPath id="p202812e840">
   <rect x="155.621" y="17.28" width="367.099" height="312.892"/>
  </clipPath>
 </defs>
</svg>
